<svg width="150" height="150" viewBox="0 0 150 150" fill="none" xmlns="http://www.w3.org/2000/svg">
<path d="M150 150H0V0H150V150Z" fill="#FEDD02"/>
<path d="M62.1961 62.8806C62.9533 63.9489 64.9665 64.041 65.2897 62.4754C67.1367 52.5602 69.0052 42.6449 70.8952 32.7296C71.2923 30.6023 68.0324 29.6814 67.6261 31.8087C66.0193 40.3856 64.4093 48.9532 62.7963 57.5117C57.7542 48.726 55.1961 38.5775 48.2239 30.943L48.0946 30.8233C47.7899 28.7328 44.4561 28.7144 44.7147 30.8233C46.1184 42.3533 45.2318 53.9016 44.2529 65.4316C44.0683 67.605 47.4574 67.5866 47.6421 65.4316C48.4455 55.9092 49.1843 46.3685 48.6302 36.8369C54.1711 44.8674 56.5259 54.8318 62.2053 62.8438L62.1961 62.8806Z" fill="#1D1D1B"/>
<path d="M44.2714 90.3057C42.3402 97.0815 40.9416 103.997 40.088 110.99C36.1417 104.433 31.8753 98.0722 27.2887 91.9082C27.0427 91.569 26.6818 91.3301 26.2729 91.2359V89.79C26.2729 89.3431 26.0948 88.9144 25.7779 88.5983C25.461 88.2823 25.0311 88.1047 24.5829 88.1047C24.1347 88.1047 23.7048 88.2823 23.3879 88.5983C23.071 88.9144 22.8929 89.3431 22.8929 89.79V119.14C22.8929 119.587 23.071 120.015 23.3879 120.332C23.7048 120.648 24.1347 120.825 24.5829 120.825C25.0311 120.825 25.461 120.648 25.7779 120.332C26.0948 120.015 26.2729 119.587 26.2729 119.14V96.2273C31.1203 102.949 35.6234 109.911 39.7648 117.086C39.959 117.397 40.2486 117.638 40.5907 117.772C40.9327 117.906 41.3089 117.926 41.6635 117.83C42.0181 117.734 42.3322 117.526 42.5591 117.238C42.786 116.95 42.9137 116.596 42.9231 116.23C43.6462 107.757 45.1926 99.3739 47.5405 91.199C48.1407 89.1085 44.8716 88.206 44.2714 90.2781V90.3057Z" fill="#1D1D1B"/>
<path d="M72.5944 109.083H72.8622C75.0139 108.918 75.0323 105.529 72.8622 105.704L71.283 105.823C69.0749 100.552 66.4437 95.4676 63.415 90.6189L63.6644 89.79C64.2831 87.6903 61.014 86.797 60.3953 88.8691C57.6495 98.1643 54.9037 107.453 52.1579 116.736C51.5391 118.827 54.799 119.72 55.4177 117.657L57.6064 110.29C57.637 110.285 57.6681 110.285 57.6987 110.29L69.0759 109.369C70.0825 111.929 70.9968 114.544 71.8463 117.197C72.4743 119.278 75.7342 118.394 75.1062 116.276C74.3674 113.82 73.5455 111.416 72.6405 109.065L72.5944 109.083ZM58.6314 106.827L62.1222 95.0393C64.208 98.6078 66.0768 102.298 67.7184 106.09L58.6314 106.799V106.827Z" fill="#1D1D1B"/>
<path d="M101 88.5192C100.769 88.6145 100.563 88.7628 100.4 88.952L95.4411 94.4775C94.5176 95.5366 92.2551 99.0821 90.8976 99.0821C90.0665 99.0821 86.7882 94.0355 86.1417 93.2435C84.5626 91.2911 82.9742 89.348 81.3858 87.3956C81.2209 87.1852 81.0047 87.0203 80.7579 86.9167C80.1022 84.8447 76.8331 85.7288 77.4888 87.8377C80.5581 97.4817 81.7523 107.622 81.0072 117.712C80.8502 119.886 84.2394 119.867 84.3964 117.712C84.9632 109.913 84.4065 102.073 82.7433 94.4315L85.3383 97.6179C86.6312 99.2111 88.3581 102.563 90.6483 102.849C92.9385 103.134 94.4807 100.592 95.7643 99.165L100.308 94.1184C99.5213 102.286 99.6266 110.516 100.622 118.661C100.88 120.788 104.316 120.816 104.002 118.661C102.803 109.083 102.855 99.391 104.159 89.8269C104.436 87.8469 101.628 86.9167 101 88.5284V88.5192Z" fill="#1D1D1B"/>
<path d="M125.417 116.202C121.74 116.669 118.02 116.697 114.335 116.285C114.437 113.08 114.428 109.839 114.335 106.68C114.437 106.608 114.533 106.528 114.622 106.44C115.169 105.897 115.823 105.474 116.544 105.199C117.264 104.923 118.034 104.8 118.805 104.838C120.984 104.921 120.975 101.532 118.805 101.458C117.17 101.405 115.552 101.807 114.132 102.618C113.892 98.5849 113.477 94.5696 112.913 90.5544C116.975 89.3355 121.194 88.715 125.436 88.7126C125.863 88.681 126.263 88.4893 126.555 88.1759C126.847 87.8624 127.01 87.4505 127.01 87.0227C127.01 86.5949 126.847 86.1829 126.555 85.8694C126.263 85.556 125.863 85.3643 125.436 85.3328C120.76 85.3275 116.109 86.0198 111.639 87.3864C111.423 87.4462 111.223 87.551 111.051 87.6939C110.879 87.8368 110.739 88.0145 110.642 88.2153C110.255 88.3646 109.93 88.6392 109.719 88.995C109.508 89.3508 109.423 89.7671 109.478 90.1768C110.847 99.4422 111.323 108.817 110.9 118.173C110.893 118.475 110.969 118.773 111.122 119.034C111.275 119.295 111.497 119.509 111.764 119.651C112.031 119.793 112.333 119.859 112.635 119.84C112.938 119.821 113.229 119.719 113.477 119.545H113.578C117.524 120.047 121.518 120.047 125.463 119.545C127.587 119.278 127.615 115.861 125.463 116.156L125.417 116.202Z" fill="#1D1D1B"/>
<path d="M89.4662 44.8213C89.614 43.1268 89.6786 41.4415 89.6786 39.7471C89.647 39.3204 89.4548 38.9215 89.1405 38.6303C88.8261 38.3392 88.413 38.1774 87.984 38.1774C87.5551 38.1774 87.1419 38.3392 86.8276 38.6303C86.5133 38.9215 86.3211 39.3204 86.2895 39.7471C86.2895 41.4415 86.2248 43.1268 86.0771 44.8213C85.8924 46.9855 89.2723 46.9763 89.4662 44.8213Z" fill="#1D1D1B"/>
<path d="M100.188 44.8213C100.123 43.0716 100.049 41.3218 99.9754 39.5721C99.8923 37.4079 96.5031 37.3987 96.5955 39.5721C96.6694 41.3218 96.734 43.0716 96.8079 44.8213C96.891 46.9855 100.28 47.0039 100.188 44.8213Z" fill="#1D1D1B"/>
<path d="M106.403 49.5549C104.556 65.1277 81.7737 60.606 80.8964 46.8474C80.7579 44.6832 77.378 44.674 77.5165 46.8474C78.0798 55.7067 86.1417 62.6781 94.887 63.0556C102.958 63.3964 108.887 57.263 109.792 49.5549C110.041 47.3999 106.652 47.4183 106.403 49.5549Z" fill="#1D1D1B"/>
</svg>
