<svg width="40" height="40" viewBox="0 0 40 40" fill="none" xmlns="http://www.w3.org/2000/svg">
<path d="M24.7303 28.146C24.7975 28.1461 24.8641 28.1326 24.9259 28.1063C24.9878 28.08 25.0437 28.0415 25.0903 27.993L32.4493 20.362C32.5393 20.2691 32.5896 20.1448 32.5896 20.0155C32.5896 19.8862 32.5393 19.7619 32.4493 19.669L25.0583 12.007C25.0135 11.9569 24.9591 11.9164 24.8982 11.8878C24.8374 11.8592 24.7714 11.8431 24.7043 11.8406C24.6371 11.8381 24.5701 11.8492 24.5074 11.8731C24.4446 11.8971 24.3872 11.9334 24.3388 11.98C24.2904 12.0266 24.2519 12.0825 24.2255 12.1444C24.1992 12.2062 24.1856 12.2727 24.1855 12.3399C24.1855 12.4071 24.199 12.4736 24.2252 12.5355C24.2515 12.5974 24.2899 12.6533 24.3383 12.7L31.3943 20.015L24.3703 27.299C24.3022 27.3696 24.2564 27.4588 24.2386 27.5552C24.2208 27.6517 24.2317 27.7513 24.2701 27.8416C24.3085 27.9319 24.3726 28.0089 24.4544 28.063C24.5362 28.1172 24.6322 28.146 24.7303 28.146Z" fill="#3C3C3C"/>
<path d="M7.91016 20.515H32.0902C32.2228 20.515 32.3499 20.4623 32.4437 20.3686C32.5375 20.2748 32.5902 20.1476 32.5902 20.015C32.5902 19.8824 32.5375 19.7552 32.4437 19.6615C32.3499 19.5677 32.2228 19.515 32.0902 19.515H7.91016C7.77755 19.515 7.65037 19.5677 7.5566 19.6615C7.46283 19.7552 7.41016 19.8824 7.41016 20.015C7.41016 20.1476 7.46283 20.2748 7.5566 20.3686C7.65037 20.4623 7.77755 20.515 7.91016 20.515Z" fill="#3C3C3C"/>
</svg>
