<svg width="40" height="40" viewBox="0 0 40 40" fill="none" xmlns="http://www.w3.org/2000/svg">
<path d="M15.2695 28.146C15.2022 28.1461 15.1357 28.1326 15.0738 28.1063C15.0119 28.08 14.956 28.0415 14.9095 27.993L7.55047 20.362C7.46048 20.2691 7.41016 20.1448 7.41016 20.0155C7.41016 19.8862 7.46048 19.7619 7.55047 19.669L14.9415 12.007C14.9863 11.9569 15.0407 11.9164 15.1015 11.8878C15.1623 11.8592 15.2283 11.8431 15.2955 11.8406C15.3626 11.8381 15.4296 11.8492 15.4924 11.8731C15.5552 11.8971 15.6125 11.9334 15.6609 11.98C15.7094 12.0266 15.7479 12.0825 15.7742 12.1444C15.8006 12.2062 15.8142 12.2727 15.8142 12.3399C15.8143 12.4071 15.8008 12.4736 15.7745 12.5355C15.7483 12.5974 15.7098 12.6533 15.6615 12.7L8.60547 20.015L15.6295 27.299C15.6976 27.3696 15.7434 27.4588 15.7612 27.5552C15.779 27.6517 15.768 27.7513 15.7296 27.8416C15.6913 27.9319 15.6272 28.0089 15.5453 28.063C15.4635 28.1172 15.3676 28.146 15.2695 28.146Z" fill="#3C3C3C"/>
<path d="M32.0902 20.516H7.91016C7.77755 20.516 7.65037 20.4633 7.5566 20.3695C7.46283 20.2758 7.41016 20.1486 7.41016 20.016C7.41016 19.8834 7.46283 19.7562 7.5566 19.6624C7.65037 19.5687 7.77755 19.516 7.91016 19.516H32.0902C32.2228 19.516 32.3499 19.5687 32.4437 19.6624C32.5375 19.7562 32.5902 19.8834 32.5902 20.016C32.5902 20.1486 32.5375 20.2758 32.4437 20.3695C32.3499 20.4633 32.2228 20.516 32.0902 20.516Z" fill="#3C3C3C"/>
</svg>
