<svg width="99" height="56" viewBox="0 0 99 56" fill="none" xmlns="http://www.w3.org/2000/svg">
<g clip-path="url(#clip0)">
<path d="M23.8549 10.0649V20.1757C23.8549 21.9439 23.1955 23.3721 21.8768 24.4603C20.558 25.5484 18.9881 26.0925 17.167 26.0925C15.3302 26.0925 13.7524 25.5484 12.4336 24.4603C11.1306 23.3721 10.4791 21.9439 10.4791 20.1757V10.0649H13.8466V20.1757C13.8466 21.2185 14.1841 21.9968 14.8592 22.5107C15.5343 23.0245 16.3035 23.2814 17.167 23.2814C18.0305 23.2814 18.7997 23.0245 19.4748 22.5107C20.1499 21.9968 20.4874 21.2185 20.4874 20.1757V10.0649H23.8549ZM32.0557 14.0094C32.9348 14.0094 33.6727 14.1908 34.2693 14.5535C34.8816 14.9011 35.1955 15.2261 35.2113 15.5283V14.1455H38.5788V25.9338H35.2113V24.3696C35.1955 24.6718 34.8816 25.0346 34.2693 25.4578C33.657 25.881 32.9191 26.0925 32.0557 26.0925C31.3963 26.0925 30.737 25.9716 30.0776 25.7298C29.4182 25.4729 28.8059 25.1102 28.2408 24.6416C27.6756 24.158 27.2124 23.5157 26.8514 22.7147C26.506 21.9137 26.3333 21.0145 26.3333 20.017C26.3333 18.158 26.922 16.692 28.0995 15.619C29.2926 14.546 30.6113 14.0094 32.0557 14.0094ZM34.5754 17.5686C34.0574 17.0397 33.4058 16.7752 32.6209 16.7752C31.8358 16.7752 31.1529 17.0699 30.5721 17.6593C29.9912 18.2487 29.7008 19.0346 29.7008 20.017C29.7008 21.0296 29.9912 21.8306 30.5721 22.42C31.1529 23.0094 31.8358 23.3041 32.6209 23.3041C33.4058 23.3041 34.0574 23.0396 34.5754 22.5107C35.0935 21.9666 35.3526 21.1353 35.3526 20.017C35.3526 18.8986 35.0935 18.0825 34.5754 17.5686Z" fill="#F8FCFF"/>
<path d="M48.6051 9.90659C49.9239 9.90659 51.0542 10.2088 51.9962 10.8134C52.9381 11.4179 53.6446 12.1509 54.1156 13.0124L51.0778 14.0098C50.6696 13.1937 49.8925 12.7857 48.7464 12.7857C48.1812 12.7857 47.7024 12.9065 47.3099 13.1484C46.9331 13.3902 46.7447 13.7 46.7447 14.0779C46.7447 14.4708 46.8782 14.8184 47.1451 15.1207C47.4277 15.4078 47.9536 15.6723 48.7229 15.9141L49.3587 16.1181C51.1955 16.7227 52.5143 17.4632 53.3149 18.3398C54.1313 19.2164 54.5395 20.2365 54.5395 21.4002C54.5395 22.4279 54.2098 23.312 53.5504 24.0526C52.891 24.7932 52.1217 25.3221 51.2426 25.6395C50.3635 25.9417 49.4607 26.0929 48.5345 26.0929C47.0273 26.0929 45.7321 25.7604 44.6489 25.0954C43.5814 24.4305 42.8278 23.5237 42.3882 22.375L45.2376 21.1509C45.4731 21.7403 45.8892 22.2315 46.4857 22.6244C47.0823 23.0173 47.7652 23.2138 48.5345 23.2138C49.1938 23.2138 49.7748 23.0627 50.2771 22.7604C50.7952 22.4582 51.0542 22.0048 51.0542 21.4002C51.0542 20.826 50.8658 20.3876 50.489 20.0854C50.128 19.768 49.4372 19.4355 48.4167 19.0879L47.8045 18.8612C46.3601 18.3776 45.2454 17.7655 44.4605 17.0249C43.6756 16.2693 43.283 15.2869 43.283 14.0779C43.283 12.8688 43.8089 11.8713 44.8608 11.0854C45.9127 10.2995 47.1608 9.90659 48.6051 9.90659ZM63.5518 16.7756H60.9378V22.1483C60.9378 22.904 61.2753 23.2818 61.9504 23.2818C62.547 23.2818 63.0729 23.1912 63.5282 23.0098V25.6622C62.963 25.9342 62.1702 26.0702 61.1498 26.0702C60.0194 26.0702 59.1402 25.7982 58.5123 25.2541C57.8843 24.6949 57.5703 23.6672 57.5703 22.171V16.7756H56.3693V14.1459H57.5703V12.1056H60.9378V14.1459H63.5518V16.7756ZM70.9007 14.0098C71.7799 14.0098 72.5177 14.1912 73.1143 14.5539C73.7265 14.9015 74.0406 15.2265 74.0562 15.5287V14.1459H77.4237V25.9342H74.0562V24.37C74.0406 24.6722 73.7265 25.0349 73.1143 25.4581C72.502 25.8814 71.7641 26.0929 70.9007 26.0929C70.2413 26.0929 69.5819 25.972 68.9225 25.7302C68.2632 25.4733 67.6509 25.1106 67.0857 24.642C66.5205 24.1584 66.0575 23.5161 65.6963 22.7151C65.351 21.9141 65.1782 21.0148 65.1782 20.0174C65.1782 18.1584 65.767 16.6924 66.9444 15.6194C68.1376 14.5464 69.4563 14.0098 70.9007 14.0098ZM73.4204 17.569C72.9023 17.0401 72.2509 16.7756 71.4658 16.7756C70.6809 16.7756 69.998 17.0703 69.4171 17.6597C68.8363 18.2491 68.5457 19.035 68.5457 20.0174C68.5457 21.03 68.8363 21.831 69.4171 22.4204C69.998 23.0098 70.6809 23.3045 71.4658 23.3045C72.2509 23.3045 72.9023 23.04 73.4204 22.5111C73.9385 21.967 74.1975 21.1357 74.1975 20.0174C74.1975 18.899 73.9385 18.0829 73.4204 17.569ZM87.3199 14.0325C87.8379 14.0325 88.2225 14.0627 88.4738 14.1232V17.1383C88.2069 17.0929 87.8144 17.0703 87.2963 17.0703C86.2444 17.0703 85.3496 17.4179 84.6117 18.1131C83.8895 18.8083 83.4736 19.7151 83.3636 20.8335V25.9342H80.0197V14.1459H83.3636V17.9317C83.5049 16.7529 83.8974 15.8083 84.5411 15.098C85.1847 14.3877 86.111 14.0325 87.3199 14.0325Z" fill="#E42726"/>
<path d="M99 12.6045H95.5147V14.4181H99V12.6045Z" fill="#F8FCFF"/>
<path d="M81.574 1.6771C81.574 2.6036 82.3542 3.35468 83.3166 3.35468C84.279 3.35468 85.0592 2.6036 85.0592 1.6771C85.0592 0.750602 84.279 -0.000473976 83.3166 -0.000473976C82.3542 -0.000473976 81.574 0.750602 81.574 1.6771Z" fill="#E42726"/>
<path d="M17.4265 34.3224C17.4265 33.3959 16.6463 32.6448 15.6839 32.6448C14.7215 32.6448 13.9413 33.3959 13.9413 34.3224C13.9413 35.2489 14.7215 36 15.6839 36C16.6463 36 17.4265 35.2489 17.4265 34.3224Z" fill="#E42726"/>
<path d="M69.3753 3.35468L76.3458 3.35468C77.3082 3.35468 78.0884 2.6036 78.0884 1.6771C78.0884 0.750602 77.3082 -0.000473976 76.3458 -0.000473976L69.3753 -0.000473976C68.4128 -0.000473976 67.6326 0.750602 67.6326 1.6771C67.6326 2.6036 68.4128 3.35468 69.3753 3.35468Z" fill="#E42726"/>
<path d="M29.6247 32.6448H22.6542C21.6917 32.6448 20.9115 33.3959 20.9115 34.3224C20.9115 35.2489 21.6917 36 22.6542 36H29.6247C30.5871 36 31.3673 35.2489 31.3673 34.3224C31.3673 33.3959 30.5871 32.6448 29.6247 32.6448Z" fill="#E42726"/>
<path fill-rule="evenodd" clip-rule="evenodd" d="M57.177 2.12301e-06C57.1926 -0.000397589 57.2084 2.31901e-06 57.2241 2.32227e-06C58.1865 2.40326e-06 58.9667 0.751078 58.9667 1.67758C58.9667 2.60408 58.1865 3.35515 57.2241 3.35515C57.2084 3.35515 57.1926 3.35495 57.177 3.35455L6.31113 3.35515C4.75045 3.35515 3.48525 4.57311 3.48525 6.07554V29.9243C3.48525 31.4268 4.75044 32.6447 6.31113 32.6447H10.4087H10.4558C11.3964 32.6687 12.1513 33.4109 12.1513 34.3223C12.1513 35.2336 11.3964 35.9752 10.4558 35.9992L10.4087 35.9998H5.65176C2.53038 35.9998 0 33.5639 0 30.5591V5.44078C0 2.43592 2.53038 2.12301e-06 5.65176 2.12301e-06H57.177ZM41.823 35.9998H41.8701H93.3483C96.4699 35.9998 99 33.5639 99 30.5591V5.44078C99 2.43592 96.4699 2.12301e-06 93.3483 2.12301e-06H88.5443C87.6036 0.0240291 86.8488 0.766239 86.8488 1.67758C86.8488 2.58892 87.6036 3.33052 88.5443 3.35455L88.5914 3.35515H92.6889C94.2497 3.35515 95.5148 4.57312 95.5148 6.07554V29.9243C95.5148 31.4268 94.2497 32.6447 92.6889 32.6447H41.8701H41.823C40.8824 32.6687 40.1275 33.4109 40.1275 34.3223C40.1275 35.2336 40.8824 35.9758 41.823 35.9998Z" fill="#E42726"/>
</g>
<path d="M2.83651 51.1023C3.78254 51.1023 4.10214 50.5142 4.26833 50.2457H4.35782V51H5.08651V44.4545H4.33225V46.8707H4.26833C4.10214 46.6151 3.80811 46.027 2.8493 46.027C1.60924 46.027 0.752708 47.0114 0.752708 48.5582C0.752708 50.1179 1.60924 51.1023 2.83651 51.1023ZM2.93879 50.4247C1.99276 50.4247 1.50697 49.5938 1.50697 48.5455C1.50697 47.5099 1.97998 46.7045 2.93879 46.7045C3.85924 46.7045 4.34504 47.446 4.34504 48.5455C4.34504 49.6577 3.84646 50.4247 2.93879 50.4247ZM8.6309 51.1023C9.62806 51.1023 10.3568 50.6037 10.5869 49.8622L9.85818 49.6577C9.66642 50.169 9.22217 50.4247 8.6309 50.4247C7.74561 50.4247 7.13517 49.8526 7.10001 48.8011H10.6636V48.4815C10.6636 46.6534 9.57693 46.027 8.5542 46.027C7.22465 46.027 6.34255 47.0753 6.34255 48.5838C6.34255 50.0923 7.21187 51.1023 8.6309 51.1023ZM7.10001 48.1491C7.15115 47.3853 7.69127 46.7045 8.5542 46.7045C9.37238 46.7045 9.89653 47.3182 9.89653 48.1491H7.10001ZM15.2882 47.1903C15.0517 46.4936 14.5212 46.027 13.5496 46.027C12.5141 46.027 11.747 46.6151 11.747 47.446C11.747 48.1236 12.1497 48.5774 13.051 48.7884L13.8692 48.9801C14.3646 49.0952 14.5979 49.3317 14.5979 49.6705C14.5979 50.0923 14.1504 50.4375 13.4473 50.4375C12.8305 50.4375 12.4438 50.1722 12.3095 49.6449L11.5936 49.8239C11.7694 50.658 12.4565 51.1023 13.4601 51.1023C14.6011 51.1023 15.3777 50.479 15.3777 49.6321C15.3777 48.9482 14.9494 48.5167 14.0737 48.3026L13.345 48.1236C12.7634 47.9798 12.5013 47.7848 12.5013 47.4077C12.5013 46.9858 12.9487 46.679 13.5496 46.679C14.208 46.679 14.4796 47.0433 14.6107 47.3821L15.2882 47.1903ZM16.5131 51H17.2674V46.0909H16.5131V51ZM16.8966 45.2727C17.1907 45.2727 17.4335 45.0426 17.4335 44.7614C17.4335 44.4801 17.1907 44.25 16.8966 44.25C16.6026 44.25 16.3597 44.4801 16.3597 44.7614C16.3597 45.0426 16.6026 45.2727 16.8966 45.2727ZM20.6304 52.9432C21.8065 52.9432 22.7525 52.4062 22.7525 51.1406V46.0909H22.0238V46.8707H21.9471C21.7809 46.6151 21.4741 46.027 20.5153 46.027C19.2753 46.027 18.4187 47.0114 18.4187 48.5199C18.4187 50.054 19.3136 50.9233 20.5025 50.9233C21.4613 50.9233 21.7682 50.3608 21.9343 50.0923H21.9983V51.0895C21.9983 51.9077 21.423 52.2784 20.6304 52.2784C19.7387 52.2784 19.4255 51.8086 19.2241 51.5369L18.6233 51.9588C18.9301 52.4734 19.5341 52.9432 20.6304 52.9432ZM20.6048 50.2457C19.6588 50.2457 19.173 49.5298 19.173 48.5071C19.173 47.5099 19.646 46.7045 20.6048 46.7045C21.5253 46.7045 22.0111 47.446 22.0111 48.5071C22.0111 49.5938 21.5125 50.2457 20.6048 50.2457ZM24.8875 48.0469C24.8875 47.1903 25.418 46.7045 26.1403 46.7045C26.8402 46.7045 27.2653 47.1616 27.2653 47.9318V51H28.0196V47.8807C28.0196 46.6278 27.3516 46.027 26.3576 46.027C25.6162 46.027 25.1559 46.3594 24.9258 46.858H24.8619V46.0909H24.1332V51H24.8875V48.0469Z" fill="#F8FCFF"/>
<path d="M35.6656 51.0895C36.2665 51.0895 36.9376 50.8786 37.3627 50.4439L37.8261 51H38.7338L37.8293 49.8974C38.0754 49.581 38.3503 49.0504 38.3503 48.1364H37.6216C37.6216 48.5838 37.5193 48.9801 37.3499 49.3093L35.9277 47.5739L36.4071 47.2159C36.944 46.8196 37.2764 46.3849 37.2764 45.7585C37.2764 45.0298 36.6756 44.3906 35.6912 44.3906C34.7324 44.3906 34.106 44.9915 34.106 45.8736C34.106 46.4553 34.4224 46.9027 34.873 47.446C34.1092 47.9766 33.5818 48.4688 33.5818 49.2614C33.5818 50.3224 34.3744 51.0895 35.6656 51.0895ZM36.9121 49.8974C36.5509 50.2362 36.0939 50.4247 35.64 50.4247C34.8602 50.4247 34.3489 49.875 34.3489 49.2614C34.3489 49.0824 34.515 48.6222 35.1031 48.1875L35.346 48.0085L36.9121 49.8974ZM35.4643 47.0114C35.1447 46.6214 34.873 46.2507 34.873 45.8864C34.873 45.4773 35.2182 45.0426 35.7168 45.0426C36.1898 45.0426 36.5094 45.4261 36.5094 45.7585C36.5094 46.206 36.2665 46.4489 35.8957 46.6918L35.4643 47.0114Z" fill="#F8FCFF"/>
<path d="M45.8761 51.1023C46.8221 51.1023 47.1417 50.5142 47.3079 50.2457H47.3974V51H48.1261V44.4545H47.3718V46.8707H47.3079C47.1417 46.6151 46.8477 46.027 45.8888 46.027C44.6488 46.027 43.7923 47.0114 43.7923 48.5582C43.7923 50.1179 44.6488 51.1023 45.8761 51.1023ZM45.9783 50.4247C45.0323 50.4247 44.5465 49.5938 44.5465 48.5455C44.5465 47.5099 45.0195 46.7045 45.9783 46.7045C46.8988 46.7045 47.3846 47.446 47.3846 48.5455C47.3846 49.6577 46.886 50.4247 45.9783 50.4247ZM51.6705 51.1023C52.6676 51.1023 53.3963 50.6037 53.6264 49.8622L52.8977 49.6577C52.706 50.169 52.2617 50.4247 51.6705 50.4247C50.7852 50.4247 50.1747 49.8526 50.1396 48.8011H53.7031V48.4815C53.7031 46.6534 52.6165 46.027 51.5938 46.027C50.2642 46.027 49.3821 47.0753 49.3821 48.5838C49.3821 50.0923 50.2514 51.1023 51.6705 51.1023ZM50.1396 48.1491C50.1907 47.3853 50.7308 46.7045 51.5938 46.7045C52.4119 46.7045 52.9361 47.3182 52.9361 48.1491H50.1396ZM58.7153 46.0909H57.8971L56.542 50.0028H56.4909L55.1357 46.0909H54.3176L56.1329 51H56.8999L58.7153 46.0909ZM61.5933 51.1023C62.5905 51.1023 63.3192 50.6037 63.5493 49.8622L62.8206 49.6577C62.6288 50.169 62.1846 50.4247 61.5933 50.4247C60.708 50.4247 60.0976 49.8526 60.0624 48.8011H63.626V48.4815C63.626 46.6534 62.5393 46.027 61.5166 46.027C60.1871 46.027 59.305 47.0753 59.305 48.5838C59.305 50.0923 60.1743 51.1023 61.5933 51.1023ZM60.0624 48.1491C60.1135 47.3853 60.6537 46.7045 61.5166 46.7045C62.3348 46.7045 62.8589 47.3182 62.8589 48.1491H60.0624ZM65.5276 44.4545H64.7733V51H65.5276V44.4545ZM68.9034 51.1023C70.233 51.1023 71.1278 50.0923 71.1278 48.571C71.1278 47.0369 70.233 46.027 68.9034 46.027C67.5739 46.027 66.679 47.0369 66.679 48.571C66.679 50.0923 67.5739 51.1023 68.9034 51.1023ZM68.9034 50.4247C67.8935 50.4247 67.4332 49.5554 67.4332 48.571C67.4332 47.5866 67.8935 46.7045 68.9034 46.7045C69.9134 46.7045 70.3736 47.5866 70.3736 48.571C70.3736 49.5554 69.9134 50.4247 68.9034 50.4247ZM72.2792 52.8409H73.0335V50.2457H73.0974C73.2636 50.5142 73.5832 51.1023 74.5292 51.1023C75.7565 51.1023 76.613 50.1179 76.613 48.5582C76.613 47.0114 75.7565 46.027 74.5164 46.027C73.5576 46.027 73.2636 46.6151 73.0974 46.8707H73.0079V46.0909H72.2792V52.8409ZM73.0207 48.5455C73.0207 47.446 73.5065 46.7045 74.4269 46.7045C75.3857 46.7045 75.8588 47.5099 75.8588 48.5455C75.8588 49.5938 75.373 50.4247 74.4269 50.4247C73.5193 50.4247 73.0207 49.6577 73.0207 48.5455ZM77.7636 51H78.5178V47.9318C78.5178 47.2127 79.042 46.7045 79.6301 46.7045C80.2021 46.7045 80.6017 47.0785 80.6017 47.6378V51H81.3687V47.804C81.3687 47.1712 81.765 46.7045 82.4553 46.7045C82.9923 46.7045 83.4525 46.989 83.4525 47.7145V51H84.2068V47.7145C84.2068 46.5607 83.5867 46.027 82.711 46.027C82.0079 46.027 81.4933 46.3498 81.2409 46.858H81.1897C80.9468 46.3338 80.5186 46.027 79.873 46.027C79.2338 46.027 78.7607 46.3338 78.5562 46.858H78.4923V46.0909H77.7636V51ZM87.6441 51.1023C88.6412 51.1023 89.3699 50.6037 89.6001 49.8622L88.8714 49.6577C88.6796 50.169 88.2354 50.4247 87.6441 50.4247C86.7588 50.4247 86.1483 49.8526 86.1132 48.8011H89.6768V48.4815C89.6768 46.6534 88.5901 46.027 87.5674 46.027C86.2378 46.027 85.3557 47.0753 85.3557 48.5838C85.3557 50.0923 86.2251 51.1023 87.6441 51.1023ZM86.1132 48.1491C86.1643 47.3853 86.7045 46.7045 87.5674 46.7045C88.3856 46.7045 88.9097 47.3182 88.9097 48.1491H86.1132ZM91.5784 48.0469C91.5784 47.1903 92.1089 46.7045 92.8312 46.7045C93.5312 46.7045 93.9562 47.1616 93.9562 47.9318V51H94.7105V47.8807C94.7105 46.6278 94.0425 46.027 93.0486 46.027C92.3071 46.027 91.8469 46.3594 91.6167 46.858H91.5528V46.0909H90.8241V51H91.5784V48.0469ZM98.2237 46.0909H97.1754V44.9148H96.4212V46.0909H95.6797V46.7301H96.4212V49.7983C96.4212 50.6548 97.1115 51.0639 97.7507 51.0639C98.032 51.0639 98.2109 51.0128 98.3132 50.9744L98.1598 50.2969C98.0959 50.3097 97.9936 50.3352 97.8274 50.3352C97.495 50.3352 97.1754 50.233 97.1754 49.5938V46.7301H98.2237V46.0909Z" fill="#F8FCFF"/>
<defs>
<clipPath id="clip0">
<rect width="99" height="36" fill="white"/>
</clipPath>
</defs>
</svg>
